<mxfile host="app.diagrams.net" modified="2022-05-27T18:59:28.326Z" agent="5.0 (Windows)" etag="rx1BpxkA2xKodbSuaGjW" version="17.4.6" type="github">
  <diagram id="5DsiohScT-RiMn0nVwY6" name="Page-1">
    <mxGraphModel dx="974" dy="540" grid="1" gridSize="10" guides="1" tooltips="1" connect="1" arrows="1" fold="1" page="1" pageScale="1" pageWidth="850" pageHeight="1100" math="0" shadow="0">
      <root>
        <mxCell id="0" />
        <mxCell id="1" parent="0" />
        <mxCell id="R0YW5REdjmm-xU5laIyo-1" value="" style="rounded=0;whiteSpace=wrap;html=1;" vertex="1" parent="1">
          <mxGeometry x="10" y="40" width="910" height="50" as="geometry" />
        </mxCell>
        <mxCell id="R0YW5REdjmm-xU5laIyo-2" value="Logo" style="text;html=1;strokeColor=none;fillColor=none;align=center;verticalAlign=middle;whiteSpace=wrap;rounded=0;fontSize=16;" vertex="1" parent="1">
          <mxGeometry x="10" y="40" width="140" height="50" as="geometry" />
        </mxCell>
        <mxCell id="R0YW5REdjmm-xU5laIyo-3" value="Menu" style="text;html=1;strokeColor=none;fillColor=none;align=center;verticalAlign=middle;whiteSpace=wrap;rounded=0;fontSize=12;" vertex="1" parent="1">
          <mxGeometry x="160" y="40" width="140" height="50" as="geometry" />
        </mxCell>
        <mxCell id="R0YW5REdjmm-xU5laIyo-4" value="Menu" style="text;html=1;strokeColor=none;fillColor=none;align=center;verticalAlign=middle;whiteSpace=wrap;rounded=0;fontSize=12;" vertex="1" parent="1">
          <mxGeometry x="300" y="40" width="140" height="50" as="geometry" />
        </mxCell>
        <mxCell id="R0YW5REdjmm-xU5laIyo-5" value="Menu" style="text;html=1;strokeColor=none;fillColor=none;align=center;verticalAlign=middle;whiteSpace=wrap;rounded=0;fontSize=12;" vertex="1" parent="1">
          <mxGeometry x="440" y="40" width="140" height="50" as="geometry" />
        </mxCell>
        <mxCell id="R0YW5REdjmm-xU5laIyo-6" value="Menu" style="text;html=1;strokeColor=none;fillColor=none;align=center;verticalAlign=middle;whiteSpace=wrap;rounded=0;fontSize=12;" vertex="1" parent="1">
          <mxGeometry x="565" y="40" width="140" height="50" as="geometry" />
        </mxCell>
        <mxCell id="R0YW5REdjmm-xU5laIyo-7" value="" style="rounded=0;whiteSpace=wrap;html=1;fontSize=12;" vertex="1" parent="1">
          <mxGeometry x="10" y="90" width="910" height="550" as="geometry" />
        </mxCell>
        <mxCell id="R0YW5REdjmm-xU5laIyo-8" value="&lt;font style=&quot;font-size: 20px&quot;&gt;Select facility:&lt;/font&gt; " style="text;html=1;strokeColor=none;fillColor=none;align=center;verticalAlign=middle;whiteSpace=wrap;rounded=0;fontSize=12;" vertex="1" parent="1">
          <mxGeometry x="50" y="120" width="140" height="50" as="geometry" />
        </mxCell>
        <mxCell id="R0YW5REdjmm-xU5laIyo-9" value="" style="rounded=0;whiteSpace=wrap;html=1;fontSize=20;" vertex="1" parent="1">
          <mxGeometry x="60" y="170" width="810" height="420" as="geometry" />
        </mxCell>
        <mxCell id="R0YW5REdjmm-xU5laIyo-10" value="" style="rounded=0;whiteSpace=wrap;html=1;fontSize=20;" vertex="1" parent="1">
          <mxGeometry x="60" y="170" width="810" height="60" as="geometry" />
        </mxCell>
        <mxCell id="R0YW5REdjmm-xU5laIyo-11" value="" style="rounded=0;whiteSpace=wrap;html=1;fontSize=20;" vertex="1" parent="1">
          <mxGeometry x="60" y="230" width="810" height="60" as="geometry" />
        </mxCell>
        <mxCell id="R0YW5REdjmm-xU5laIyo-12" value="Facility 1" style="text;html=1;strokeColor=none;fillColor=none;align=left;verticalAlign=middle;whiteSpace=wrap;rounded=0;fontSize=12;" vertex="1" parent="1">
          <mxGeometry x="70" y="185" width="190" height="30" as="geometry" />
        </mxCell>
        <mxCell id="R0YW5REdjmm-xU5laIyo-13" value="Facility 1 Number of Beds" style="text;html=1;strokeColor=none;fillColor=none;align=left;verticalAlign=middle;whiteSpace=wrap;rounded=0;fontSize=12;" vertex="1" parent="1">
          <mxGeometry x="460" y="185" width="190" height="30" as="geometry" />
        </mxCell>
        <mxCell id="R0YW5REdjmm-xU5laIyo-14" value="Facility 1 Address" style="text;html=1;strokeColor=none;fillColor=none;align=left;verticalAlign=middle;whiteSpace=wrap;rounded=0;fontSize=12;" vertex="1" parent="1">
          <mxGeometry x="270" y="185" width="190" height="30" as="geometry" />
        </mxCell>
        <mxCell id="R0YW5REdjmm-xU5laIyo-15" value="Facility 1" style="text;html=1;strokeColor=none;fillColor=none;align=left;verticalAlign=middle;whiteSpace=wrap;rounded=0;fontSize=12;" vertex="1" parent="1">
          <mxGeometry x="70" y="185" width="190" height="30" as="geometry" />
        </mxCell>
        <mxCell id="R0YW5REdjmm-xU5laIyo-16" value="Facility 1 Address" style="text;html=1;strokeColor=none;fillColor=none;align=left;verticalAlign=middle;whiteSpace=wrap;rounded=0;fontSize=12;" vertex="1" parent="1">
          <mxGeometry x="270" y="185" width="190" height="30" as="geometry" />
        </mxCell>
        <mxCell id="R0YW5REdjmm-xU5laIyo-17" value="Facility 2" style="text;html=1;strokeColor=none;fillColor=none;align=left;verticalAlign=middle;whiteSpace=wrap;rounded=0;fontSize=12;" vertex="1" parent="1">
          <mxGeometry x="70" y="245" width="190" height="30" as="geometry" />
        </mxCell>
        <mxCell id="R0YW5REdjmm-xU5laIyo-18" value="Facility 2 Address" style="text;html=1;strokeColor=none;fillColor=none;align=left;verticalAlign=middle;whiteSpace=wrap;rounded=0;fontSize=12;" vertex="1" parent="1">
          <mxGeometry x="270" y="245" width="190" height="30" as="geometry" />
        </mxCell>
        <mxCell id="R0YW5REdjmm-xU5laIyo-19" value="Facility 2 Number of Beds" style="text;html=1;strokeColor=none;fillColor=none;align=left;verticalAlign=middle;whiteSpace=wrap;rounded=0;fontSize=12;" vertex="1" parent="1">
          <mxGeometry x="460" y="245" width="190" height="30" as="geometry" />
        </mxCell>
      </root>
    </mxGraphModel>
  </diagram>
</mxfile>
